<svg xmlns="http://www.w3.org/2000/svg" shape-rendering="geometricPrecision" text-rendering="geometricPrecision" image-rendering="optimizeQuality" fill-rule="evenodd" clip-rule="evenodd" viewBox="0 0 512 462.296"><path d="M261.408 258.144c4.324 9.515 10.796 16.071 18.688 20.803-3.976 5.822-9.241 10.967-15.342 15.329-14.832 10.602-34.41 16.55-52.915 16.55-18.505 0-38.083-5.948-52.915-16.55-5.115-3.656-9.642-7.862-13.312-12.557 6.037-5.67 10.815-13.27 13.854-23.62-4.678-2.702-8.854-5.852-12.354-9.456-6.428-6.62-14.506-17.558-15.62-29.769l-1.235.023c-2.845-.038-5.596-.691-8.17-2.159-4.116-2.345-7.014-6.364-8.971-10.901-4.143-9.516-7.427-34.564 3-41.724l-1.953-1.297-.219-2.773c-.402-5.04-.504-11.139-.606-17.542-.376-23.55-.854-52.076-19.786-57.798l-8.124-2.456 5.348-6.622c15.304-18.898 31.286-35.432 47.405-48.124 18.236-14.354 36.768-23.91 54.903-26.674 18.642-2.826 36.707 1.455 53.392 14.941 4.923 3.982 9.705 8.762 14.317 14.368 17.803 1.725 32.351 11.311 42.746 24.991 6.202 8.171 10.908 17.83 13.908 28.095 2.99 10.231 4.292 21.115 3.739 31.833-1.009 19.196-8.029 37.944-22.178 51.615 2.489.092 4.836.663 6.909 1.771 7.892 4.228 8.148 13.394 6.071 21.089-2.048 6.428-4.654 13.887-7.115 20.148-2.981 8.462-7.35 10.039-15.788 9.128-.275 13.419-9.578 24.527-17.609 31.973-2.962 2.747-6.351 5.199-10.068 7.365zm103.224 63.374l17.72 16.667c13.897-14.127 27.758-28.302 41.7-42.385 4.138-4.04 7.584-5.982 13.381-.045l16.389 16.763c3.219 3.191 4.74 5.89 4.698 8.757-.045 2.893-1.663 5.476-4.715 8.472l-60.147 59.052-2.934 2.931c-3.882 3.916-5.906 5.958-8.814 6.011-3.097.056-5.378-2.219-10.118-6.963-12.747-12.73-26.219-25.43-38.617-38.403-3.436-3.756-3.134-7.467.525-11.127 6.488-6.179 12.681-13.364 19.068-19.751 1.97-2.007 3.885-2.95 5.961-2.905 2.043.043 3.927 1.046 5.903 2.926zm30.084-93.787c32.383 0 61.708 13.129 82.931 34.352C498.871 283.307 512 312.629 512 345.012s-13.129 61.708-34.353 82.931c-21.223 21.224-50.548 34.353-82.931 34.353-32.382 0-61.705-13.129-82.929-34.353a117.826 117.826 0 01-15.677-19.411l.049.076H5.382c-2.968 0-5.382-2.413-5.382-5.373 0-120.257 80.899-91.854 128.769-111.093 5.097 6.917 11.48 13.009 18.729 18.191 18.153 12.977 41.957 20.255 64.341 20.255 22.387 0 46.188-7.278 64.341-20.255a89.91 89.91 0 009.012-7.346c5.946-15.482 15.078-29.386 26.595-40.904 21.224-21.223 50.547-34.352 82.929-34.352zm0 17.634c55.037 0 99.65 44.613 99.65 99.647 0 55.036-44.613 99.65-99.65 99.65-55.034 0-99.647-44.614-99.647-99.65 0-55.034 44.613-99.647 99.647-99.647z"/></svg>