<?xml version="1.0" encoding="utf-8"?><svg version="1.1" id="Layer_1" xmlns="http://www.w3.org/2000/svg" xmlns:xlink="http://www.w3.org/1999/xlink" x="0px" y="0px" viewBox="0 0 96.17 122.88" style="enable-background:new 0 0 96.17 122.88" xml:space="preserve"><g><path d="M62.74,110.31l21.48-22.58H62.74V110.31L62.74,110.31z M18.93,61.94h58.3v5.53h-58.3V61.94L18.93,61.94z M18.93,75.53 h27.29v5.53H18.93V75.53L18.93,75.53z M18.93,89.12h19.23v5.53H18.93V89.12L18.93,89.12z M38.86,43.48h-8.04l-1.4,5.69H18.93 l9.67-29.83h12.65l9.72,29.83H40.22L38.86,43.48L38.86,43.48z M37.33,36.93l-2.39-9.94H34.8l-1.17,5.06l-1.22,4.88H37.33 L37.33,36.93z M75.22,37.7h-7.64v8.99h-7.91V37.7h-7.68v-6.91h7.68v-8.99h7.91v8.99h7.64V37.7L75.22,37.7z M96.17,84.85 c0,1.63-1.1,3.04-2.6,3.45l-31.64,33.27c-0.66,0.82-1.66,1.32-2.76,1.32H6.43c-1.79,0-3.39-0.72-4.55-1.88 C0.72,119.84,0,118.24,0,116.45V6.43c0-1.79,0.72-3.39,1.88-4.55C3.04,0.72,4.67,0,6.43,0h83.31c1.76,0,3.39,0.72,4.55,1.88 c1.16,1.16,1.88,2.76,1.88,4.55V84.85L96.17,84.85z M88.99,80.55V7.18H7.18v108.55h48.38V84.16c0-1.98,1.6-3.61,3.61-3.61H88.99 L88.99,80.55z"/></g></svg>