<?xml version="1.0" encoding="utf-8"?>
<!-- Uploaded to: SVG Repo, www.svgrepo.com, Generator: SVG Repo Mixer Tools -->
<svg fill="#000000" version="1.1" id="Layer_1" xmlns="http://www.w3.org/2000/svg" xmlns:xlink="http://www.w3.org/1999/xlink" 
	 width="800px" height="800px" viewBox="0 0 256 256" enable-background="new 0 0 256 256" xml:space="preserve">
<path d="M98.6,32.6c24,0,43.4,19.4,43.4,43.4s-19.4,43.6-43.4,43.6s-43.4-19.4-43.4-43.4S74.6,32.6,98.6,32.6z M221.8,215.6h-54.4
	l25.4-43.8c5.2-9.2,2-20.8-7-26s-20.6-2-25.8,7l-25.4,43.8l-37.8-64.8C93.2,125,86,121.6,77,121.6c-1.2,0-3.8,0.4-5.2,0.8
	c-1.2,0.2-3,0.8-4.4,1.2C31,135.6,2.2,193.8,2.2,254c1,0,87.4,0,109.4,0c-0.8-1.2-1.6-2.2-2.4-3.4L65.4,175c-1.4-2.6-0.4-6,2-7.4
	c2.6-1.4,6-0.4,7.4,2l43.4,75c3.2,5.6,9.2,9.4,16.2,9.4h87.4c10.6,0,19-8.6,19-19C241,224,232.2,215.6,221.8,215.6z M173.727,2
	c5.188,0,9.394,4.206,9.394,9.394s-4.206,9.394-9.394,9.394c-5.188,0-9.394-4.206-9.394-9.394S168.539,2,173.727,2z M188.373,4.178
	H254v14.389h-65.627V4.178z M173.727,33.469c5.188,0,9.394,4.206,9.394,9.394s-4.206,9.394-9.394,9.394
	c-5.188,0-9.394-4.206-9.394-9.394S168.539,33.469,173.727,33.469z M188.373,35.646H254v14.389h-65.627V35.646z M173.727,64.937
	c5.188,0,9.394,4.206,9.394,9.394s-4.206,9.394-9.394,9.394c-5.188,0-9.394-4.206-9.394-9.394S168.539,64.937,173.727,64.937z
	 M188.373,67.158H254v14.389h-65.627V67.158z"/>
</svg>