<?xml version="1.0" encoding="utf-8"?><svg version="1.1" id="Layer_1" xmlns="http://www.w3.org/2000/svg" xmlns:xlink="http://www.w3.org/1999/xlink" x="0px" y="0px" viewBox="0 0 122.88 109.91" style="enable-background:new 0 0 122.88 109.91" xml:space="preserve"><g><path d="M110.78,78.48c0.41,0.13,0.7,0.36,0.88,0.72c0.3,0.61,0.18,1.52-0.4,2.83l0,0c-0.01,0.02-0.02,0.04-0.03,0.06l-2.12,3.49 c-0.82,1.34-1.65,2.69-2.75,3.73c-1.15,1.07-2.56,1.79-4.49,1.78c-1.8,0-3.16-0.69-4.28-1.71c-1.08-0.98-1.9-2.25-2.68-3.5 l-1.86-2.95c-0.68-1.02-1.03-1.94-1.06-2.7c-0.01-0.36,0.05-0.68,0.18-0.97c0.14-0.3,0.35-0.55,0.64-0.74 c0.14-0.09,0.29-0.17,0.45-0.23c-0.12-1.6-0.16-3.62-0.09-5.31c0.04-0.4,0.12-0.8,0.23-1.2c0.47-1.7,1.67-3.06,3.14-4 c0.52-0.33,1.09-0.61,1.69-0.82c3.57-1.29,8.3-0.59,10.83,2.15c1.03,1.12,1.68,2.6,1.82,4.55L110.78,78.48L110.78,78.48 L110.78,78.48z M14.97,93.15l3.32,9.78l1.67-5.8l-0.82-0.9c-0.37-0.54-0.45-1.01-0.25-1.42c0.44-0.88,1.36-0.71,2.22-0.71 c0.9,0,2.01-0.17,2.29,0.96c0.09,0.38-0.02,0.77-0.29,1.18l-0.82,0.9l1.67,5.8l3.01-9.78c1.67,1.5,5.84,2.08,8.77,2.87 c0.24-0.49,0.53-0.94,0.84-1.35c0.74-0.97,1.65-1.7,2.67-2.26c3.21-1.79,11.84-2.32,14.76-4.94h0l4.46,13.13l2.24-7.79l-1.1-1.2 c-0.5-0.72-0.6-1.36-0.33-1.9c0.6-1.18,1.83-0.96,2.98-0.96c1.21,0,2.7-0.23,3.08,1.28c0.13,0.51-0.03,1.03-0.39,1.58l-1.1,1.2 l2.24,7.79l4.04-13.13c2.92,2.62,11.55,3.15,14.76,4.94c1.02,0.57,1.93,1.29,2.67,2.26c0.25,0.33,0.48,0.69,0.69,1.07 c2.79-0.66,6.16-1.27,7.62-2.58h0l3.33,9.78l1.67-5.8l-0.82-0.9c-0.37-0.54-0.45-1.01-0.25-1.42c0.44-0.88,1.36-0.71,2.22-0.71 c0.9,0,2.01-0.17,2.29,0.96c0.09,0.38-0.02,0.77-0.29,1.18l-0.82,0.9l1.67,5.8l3.01-9.78c2.17,1.95,8.6,2.35,10.99,3.68 c0.76,0.42,1.44,0.96,1.99,1.68c0.83,1.1,1.35,2.54,1.49,4.37l0.5,4.85c-0.12,1.29-0.85,2.04-2.3,2.15H87.52 c-0.12,0.02-0.24,0.03-0.36,0.04H37.01c-0.12-0.01-0.24-0.02-0.36-0.04H2.3c-1.44-0.11-2.18-0.85-2.3-2.15l0.5-4.85 c0.14-1.83,0.65-3.26,1.49-4.37c0.55-0.73,1.23-1.26,1.99-1.68C6.37,95.49,12.8,95.1,14.97,93.15L14.97,93.15L14.97,93.15z M29.85,78.48c0.41,0.13,0.7,0.36,0.88,0.72c0.3,0.61,0.18,1.52-0.4,2.83l0,0c-0.01,0.02-0.02,0.04-0.03,0.06l-2.12,3.49 c-0.82,1.34-1.65,2.69-2.75,3.73c-1.15,1.07-2.56,1.79-4.49,1.78c-1.8,0-3.16-0.69-4.28-1.71c-1.08-0.98-1.9-2.25-2.68-3.5 l-1.86-2.95c-0.68-1.02-1.03-1.94-1.06-2.7c-0.01-0.36,0.05-0.68,0.18-0.97c0.14-0.3,0.35-0.55,0.64-0.74 c0.14-0.09,0.29-0.17,0.45-0.23c-0.12-1.6-0.16-3.62-0.09-5.31c0.04-0.4,0.12-0.8,0.23-1.2c0.48-1.7,1.67-3.06,3.14-4 c0.52-0.33,1.09-0.61,1.69-0.82c3.57-1.29,8.3-0.59,10.83,2.15c1.03,1.12,1.68,2.6,1.82,4.55L29.85,78.48L29.85,78.48L29.85,78.48z M13.56,79.28c-0.35,0.02-0.62,0.1-0.81,0.23c-0.12,0.08-0.2,0.18-0.26,0.3c-0.06,0.13-0.09,0.29-0.08,0.48 c0.02,0.55,0.3,1.26,0.86,2.08l0.01,0.01l1.8,2.86c0.72,1.15,1.48,2.32,2.42,3.17c0.9,0.82,2,1.38,3.45,1.39 c1.57,0,2.72-0.58,3.65-1.45c0.97-0.91,1.73-2.15,2.49-3.39l2.03-3.34c0.42-0.96,0.55-1.56,0.4-1.85c-0.11-0.22-0.5-0.28-1.15-0.22 c-0.11,0.01-0.22-0.02-0.31-0.07c-0.1,0-0.2,0-0.31-0.01l0.07-0.34c0-0.02-0.01-0.03-0.01-0.05c-0.01-0.12,0.02-0.23,0.08-0.33 l0.46-2.32c-3.7-0.05-6.24-0.69-9.24-2.61c-0.98-0.63-1.28-1.35-2.27-1.28c-0.74,0.14-1.37,0.48-1.87,1.01 c-0.48,0.51-0.84,1.21-1.07,2.11l0.46,3.63C14.07,79.36,13.81,79.36,13.56,79.28L13.56,79.28L13.56,79.28z M14.97,55.19l3.07,9.03 c-0.53,0.12-1.05,0.27-1.55,0.45c-0.41,0.15-0.79,0.31-1.12,0.47c-0.32,0.16-0.67,0.35-1.04,0.59c-1,0.64-1.9,1.42-2.61,2.33 c-0.7,0.89-1.24,1.92-1.56,3.06c-0.07,0.26-0.14,0.53-0.19,0.81c-0.05,0.25-0.08,0.51-0.11,0.78c-0.01,0.05-0.01,0.11-0.01,0.16 c-0.03,0.63-0.04,1.33-0.04,2.04H2.3C0.85,74.8,0.12,74.06,0,72.77l0.5-7.85c0.14-1.83,0.65-3.26,1.49-4.37 c0.55-0.73,1.23-1.26,1.99-1.68C6.37,57.54,12.8,57.14,14.97,55.19L14.97,55.19L14.97,55.19z M18.54,64.12l1.43-4.95l-0.82-0.9 c-0.37-0.54-0.45-1.01-0.25-1.42c0.44-0.88,1.36-0.71,2.22-0.71c0.9,0,2.01-0.17,2.29,0.96c0.09,0.38-0.02,0.77-0.29,1.18 l-0.82,0.9l1.44,4.99C22.04,63.82,20.24,63.81,18.54,64.12L18.54,64.12z M24.2,64.25l2.79-9.06c2.17,1.95,8.6,2.35,10.99,3.68 c0.76,0.42,1.44,0.96,1.99,1.68c0.83,1.1,1.35,2.54,1.49,4.37l0.5,7.85c-0.12,1.29-0.85,2.04-2.3,2.15h-7.29l0.02-1.03 c0.01-0.13,0.01-0.26,0-0.39c-0.09-1.23-0.35-2.33-0.76-3.34c-0.42-1.03-1-1.93-1.71-2.7C28.43,65.83,26.39,64.77,24.2,64.25 L24.2,64.25z M29.85,40.53c0.41,0.13,0.7,0.36,0.88,0.72c0.3,0.61,0.18,1.52-0.4,2.83l0,0c-0.01,0.02-0.02,0.04-0.03,0.06 l-2.12,3.49c-0.82,1.34-1.65,2.69-2.75,3.73c-1.15,1.07-2.56,1.79-4.49,1.78c-1.8,0-3.16-0.69-4.28-1.71 c-1.08-0.98-1.9-2.25-2.68-3.5l-1.86-2.95c-0.68-1.02-1.03-1.94-1.06-2.7c-0.01-0.36,0.05-0.68,0.18-0.97 c0.14-0.3,0.35-0.55,0.64-0.74c0.14-0.09,0.29-0.17,0.45-0.23c-0.12-1.6-0.16-3.62-0.09-5.31c0.04-0.4,0.12-0.8,0.23-1.2 c0.48-1.7,1.67-3.06,3.14-4c0.52-0.33,1.09-0.61,1.69-0.82c3.57-1.29,8.3-0.59,10.83,2.15c1.03,1.12,1.68,2.6,1.82,4.55 L29.85,40.53L29.85,40.53L29.85,40.53z M13.56,41.22c-0.35,0.02-0.62,0.1-0.81,0.23c-0.12,0.08-0.2,0.18-0.26,0.3 c-0.06,0.13-0.09,0.29-0.08,0.48c0.02,0.55,0.3,1.26,0.86,2.08l0.01,0.01l1.8,2.86c0.72,1.15,1.48,2.32,2.42,3.17 c0.9,0.82,2,1.38,3.45,1.39c1.57,0,2.72-0.58,3.65-1.45c0.97-0.91,1.73-2.15,2.49-3.39l2.03-3.34c0.42-0.96,0.55-1.56,0.4-1.85 c-0.11-0.22-0.5-0.28-1.15-0.22c-0.11,0.01-0.22-0.02-0.31-0.07c-0.1,0-0.2,0-0.31-0.01l0.07-0.34c0-0.02-0.01-0.03-0.01-0.05 c-0.01-0.12,0.02-0.23,0.08-0.33l0.46-2.32c-3.7-0.05-6.24-0.69-9.24-2.61c-0.98-0.63-1.28-1.35-2.27-1.28 c-0.74,0.14-1.37,0.48-1.87,1.01c-0.48,0.51-0.84,1.21-1.07,2.11l0.46,3.63C14.07,41.3,13.81,41.29,13.56,41.22L13.56,41.22 L13.56,41.22z M74.06,67.77c0.54,0.17,0.94,0.49,1.18,0.97c0.4,0.81,0.24,2.04-0.54,3.8l0,0c-0.01,0.03-0.03,0.06-0.04,0.08 l-2.84,4.68c-1.1,1.8-2.21,3.61-3.69,5.01c-1.54,1.44-3.44,2.4-6.03,2.39c-2.42-0.01-4.24-0.93-5.74-2.3 c-1.44-1.32-2.55-3.02-3.6-4.69l-2.49-3.97c-0.91-1.36-1.39-2.61-1.42-3.63c-0.01-0.48,0.07-0.92,0.25-1.3 c0.19-0.4,0.47-0.74,0.86-1c0.18-0.12,0.38-0.23,0.61-0.31c-0.16-2.15-0.22-4.86-0.12-7.12c0.05-0.54,0.16-1.08,0.31-1.62 c0.64-2.28,2.24-4.11,4.21-5.37c0.7-0.44,1.46-0.81,2.27-1.1c4.79-1.73,11.14-0.79,14.54,2.89c1.39,1.5,2.25,3.49,2.44,6.11 L74.06,67.77L74.06,67.77L74.06,67.77z M51.87,68.69c-0.49,0.03-0.86,0.14-1.12,0.32c-0.16,0.11-0.28,0.25-0.36,0.41 c-0.09,0.18-0.12,0.41-0.12,0.66c0.02,0.76,0.42,1.75,1.19,2.89l0.01,0.02l2.49,3.97c1,1.59,2.05,3.21,3.35,4.4 c1.25,1.14,2.77,1.92,4.78,1.92c2.17,0.01,3.76-0.8,5.06-2.01c1.34-1.26,2.4-2.98,3.45-4.7l2.81-4.63 c0.58-1.33,0.76-2.16,0.56-2.57c-0.15-0.3-0.69-0.39-1.59-0.3c-0.16,0.01-0.31-0.02-0.43-0.1c-0.14,0.01-0.28,0-0.43-0.01 l0.09-0.47c0-0.02-0.01-0.05-0.01-0.07c-0.02-0.17,0.03-0.32,0.11-0.45l0.64-3.22c-5.14-0.06-8.65-0.96-12.81-3.62 c-1.36-0.87-1.78-1.87-3.15-1.77c-1.03,0.2-1.9,0.66-2.59,1.4c-0.66,0.71-1.16,1.68-1.48,2.93l0.63,5.03 C52.58,68.8,52.21,68.79,51.87,68.69L51.87,68.69L51.87,68.69z M56.08,26.82l3.32,9.78l1.67-5.8l-0.82-0.9 c-0.37-0.54-0.45-1.01-0.25-1.42c0.44-0.88,1.36-0.71,2.22-0.71c0.9,0,2.01-0.17,2.29,0.96c0.09,0.38-0.02,0.77-0.29,1.18 l-0.82,0.9l1.67,5.8l3.01-9.78c2.17,1.95,8.6,2.35,10.99,3.68c0.76,0.42,1.44,0.96,1.99,1.68c0.83,1.1,1.35,2.54,1.49,4.37 l0.5,5.97c-0.12,1.29-0.85,2.04-2.3,2.15H43.41c-1.44-0.11-2.18-0.85-2.3-2.15l0.5-5.97c0.14-1.83,0.65-3.26,1.49-4.37 c0.55-0.73,1.23-1.26,1.99-1.68C47.48,29.16,53.91,28.77,56.08,26.82L56.08,26.82L56.08,26.82z M70.96,12.15 c0.41,0.13,0.7,0.36,0.88,0.72c0.3,0.61,0.18,1.52-0.4,2.83l0,0c-0.01,0.02-0.02,0.04-0.03,0.06l-2.12,3.49 c-0.82,1.34-1.65,2.69-2.75,3.73c-1.15,1.07-2.56,1.79-4.49,1.78c-1.8,0-3.16-0.69-4.28-1.71c-1.08-0.98-1.9-2.25-2.68-3.5 l-1.86-2.95c-0.68-1.02-1.03-1.94-1.06-2.7c-0.01-0.36,0.05-0.68,0.18-0.97c0.14-0.3,0.35-0.55,0.64-0.74 c0.14-0.09,0.29-0.17,0.45-0.23c-0.12-1.6-0.16-3.62-0.09-5.31c0.04-0.4,0.12-0.8,0.23-1.2c0.47-1.7,1.67-3.06,3.14-4 c0.52-0.33,1.09-0.61,1.69-0.82c3.57-1.29,8.3-0.59,10.83,2.15c1.03,1.12,1.68,2.6,1.82,4.55L70.96,12.15L70.96,12.15L70.96,12.15z M54.67,12.78c-0.35,0.02-0.62,0.1-0.81,0.23c-0.12,0.08-0.2,0.18-0.26,0.3c-0.06,0.13-0.09,0.29-0.08,0.48 c0.02,0.55,0.3,1.26,0.86,2.08l0.01,0.01l1.8,2.86c0.72,1.15,1.48,2.32,2.42,3.17c0.9,0.82,2,1.38,3.45,1.39 c1.57,0,2.72-0.58,3.65-1.45c0.97-0.91,1.73-2.15,2.49-3.39l2.03-3.34c0.42-0.96,0.55-1.56,0.4-1.85c-0.11-0.22-0.5-0.28-1.15-0.22 c-0.11,0.01-0.22-0.02-0.31-0.07c-0.1,0-0.2,0-0.31-0.01l0.07-0.34c0-0.02-0.01-0.03-0.01-0.05c-0.01-0.12,0.02-0.23,0.08-0.33 l0.46-2.32c-3.7-0.05-6.24-0.69-9.24-2.61c-0.98-0.63-1.28-1.35-2.27-1.28c-0.74,0.14-1.37,0.48-1.87,1.01 c-0.48,0.51-0.84,1.21-1.07,2.11l0.46,3.63C55.18,12.86,54.92,12.86,54.67,12.78L54.67,12.78L54.67,12.78z M110.78,40.53 c0.41,0.13,0.7,0.36,0.88,0.72c0.3,0.61,0.18,1.52-0.4,2.83l0,0c-0.01,0.02-0.02,0.04-0.03,0.06l-2.12,3.49 c-0.82,1.34-1.65,2.69-2.75,3.73c-1.15,1.07-2.56,1.79-4.49,1.78c-1.8,0-3.16-0.69-4.28-1.71c-1.08-0.98-1.9-2.25-2.68-3.5 l-1.86-2.95c-0.68-1.02-1.03-1.94-1.06-2.7c-0.01-0.36,0.05-0.68,0.18-0.97c0.14-0.3,0.35-0.55,0.64-0.74 c0.14-0.09,0.29-0.17,0.45-0.23c-0.12-1.6-0.16-3.62-0.09-5.31c0.04-0.4,0.12-0.8,0.23-1.2c0.47-1.7,1.67-3.06,3.14-4 c0.52-0.33,1.09-0.61,1.69-0.82c3.57-1.29,8.3-0.59,10.83,2.15c1.03,1.12,1.68,2.6,1.82,4.55L110.78,40.53L110.78,40.53 L110.78,40.53z M95.89,55.19l3.07,9.03c-0.53,0.12-1.05,0.27-1.55,0.45c-0.41,0.15-0.79,0.31-1.12,0.47 c-0.32,0.16-0.67,0.35-1.04,0.59c-1,0.64-1.9,1.42-2.61,2.33c-0.7,0.89-1.24,1.92-1.56,3.06l0,0l0,0.01 c-0.08,0.27-0.14,0.54-0.19,0.8c-0.05,0.25-0.09,0.51-0.11,0.78c-0.01,0.05-0.01,0.11-0.01,0.16c-0.03,0.63-0.04,1.33-0.04,2.04 h-7.49c-1.44-0.11-2.18-0.85-2.3-2.15l0.5-7.85c0.14-1.83,0.65-3.26,1.49-4.37c0.55-0.73,1.23-1.26,1.99-1.68 C87.29,57.54,93.72,57.14,95.89,55.19L95.89,55.19L95.89,55.19z M99.46,64.12l1.43-4.95l-0.82-0.9c-0.37-0.54-0.45-1.01-0.25-1.42 c0.44-0.88,1.36-0.71,2.22-0.71c0.9,0,2.01-0.17,2.29,0.96c0.09,0.38-0.02,0.77-0.29,1.18l-0.82,0.9l1.44,4.99 C102.97,63.82,101.17,63.81,99.46,64.12L99.46,64.12z M105.12,64.25l2.79-9.06c2.17,1.95,8.6,2.35,10.99,3.68 c0.76,0.42,1.44,0.96,1.99,1.68c0.83,1.1,1.35,2.54,1.49,4.37l0.5,7.85c-0.12,1.29-0.85,2.04-2.3,2.15h-7.29l0.02-1.03 c0.01-0.13,0.01-0.26,0-0.39c-0.09-1.23-0.35-2.33-0.76-3.34c-0.42-1.03-1-1.93-1.71-2.7C109.35,65.83,107.31,64.77,105.12,64.25 L105.12,64.25z M94.48,41.22c-0.35,0.02-0.62,0.1-0.81,0.23c-0.12,0.08-0.2,0.18-0.26,0.3c-0.06,0.13-0.09,0.29-0.08,0.48 c0.02,0.55,0.3,1.26,0.86,2.08l0.01,0.01l1.8,2.86c0.72,1.15,1.48,2.32,2.42,3.17c0.9,0.82,2,1.38,3.45,1.39 c1.57,0,2.72-0.58,3.65-1.45c0.97-0.91,1.73-2.15,2.49-3.39l2.03-3.34c0.42-0.96,0.55-1.56,0.4-1.85c-0.11-0.22-0.5-0.28-1.15-0.22 c-0.11,0.01-0.22-0.02-0.31-0.07c-0.1,0-0.2,0-0.31-0.01l0.07-0.34c0-0.02-0.01-0.03-0.01-0.05c-0.01-0.12,0.02-0.23,0.08-0.33 l0.46-2.32c-3.7-0.05-6.24-0.69-9.24-2.61c-0.98-0.63-1.28-1.35-2.27-1.28c-0.74,0.14-1.37,0.48-1.87,1.01 c-0.48,0.51-0.84,1.21-1.07,2.11l0.46,3.63C94.99,41.3,94.73,41.29,94.48,41.22L94.48,41.22L94.48,41.22z M94.48,79.28 c-0.35,0.02-0.62,0.1-0.81,0.23c-0.12,0.08-0.2,0.18-0.26,0.3c-0.06,0.13-0.09,0.29-0.08,0.48c0.02,0.55,0.3,1.26,0.86,2.08 l0.01,0.01l1.8,2.86c0.72,1.15,1.48,2.32,2.42,3.17c0.9,0.82,2,1.38,3.45,1.39c1.57,0,2.72-0.58,3.65-1.45 c0.97-0.91,1.73-2.15,2.49-3.39l2.03-3.34c0.42-0.96,0.55-1.56,0.4-1.85c-0.11-0.22-0.5-0.28-1.15-0.22 c-0.11,0.01-0.22-0.02-0.31-0.07c-0.1,0-0.2,0-0.31-0.01l0.07-0.34c0-0.02-0.01-0.03-0.01-0.05c-0.01-0.12,0.02-0.23,0.08-0.33 l0.46-2.32c-3.7-0.05-6.24-0.69-9.24-2.61c-0.98-0.63-1.28-1.35-2.27-1.28c-0.74,0.14-1.37,0.48-1.87,1.01 c-0.48,0.51-0.84,1.21-1.07,2.11l0.46,3.63C94.99,79.36,94.73,79.36,94.48,79.28L94.48,79.28L94.48,79.28z"/></g></svg>