<svg width="40" height="40" viewBox="0 0 40 40" fill="none" xmlns="http://www.w3.org/2000/svg">
<path d="M36.2508 40H3.74917C2.75591 39.9966 1.80433 39.61 1.10199 38.9246C0.399645 38.2391 0.00351599 37.3105 0 36.3411L0 7.3405C0.00351599 6.37116 0.399645 5.44251 1.10199 4.75708C1.80433 4.07166 2.75591 3.68507 3.74917 3.68164H7.20814V8.18359C7.21122 8.78557 7.35279 9.37919 7.6224 9.92063C7.89201 10.4621 8.28277 10.9375 8.76585 11.3118C9.62988 11.9945 10.7079 12.3669 11.8195 12.3669C12.9312 12.3669 14.0092 11.9945 14.8732 11.3118C15.3563 10.9375 15.7471 10.4621 16.0167 9.92063C16.2863 9.37919 16.4279 8.78557 16.431 8.18359V3.68164H23.4156V8.18359C23.4187 8.78557 23.5603 9.37919 23.8299 9.92063C24.0995 10.4621 24.4902 10.9375 24.9733 11.3118C25.8374 11.9945 26.9153 12.3669 28.027 12.3669C29.1387 12.3669 30.2167 11.9945 31.0807 11.3118C31.5638 10.9375 31.9546 10.4621 32.2242 9.92063C32.4938 9.37919 32.6353 8.78557 32.6384 8.18359V3.68164H36.2508C37.2436 3.68677 38.1941 4.0739 38.8961 4.75896C39.5981 5.44402 39.9947 6.37169 40 7.3405V36.3411C39.9974 37.3107 39.6015 38.2399 38.899 38.9255C38.1964 39.6111 37.2444 39.9974 36.2508 40ZM27.8786 18.4798H33.2488C33.4274 18.4806 33.5987 18.5488 33.7269 18.6702C33.855 18.7916 33.9299 18.9567 33.936 19.1309V23.4928C33.9299 23.667 33.855 23.8321 33.7269 23.9535C33.5987 24.0749 33.4274 24.1431 33.2488 24.1439H27.8786C27.7032 24.139 27.5365 24.0688 27.4124 23.9478C27.2884 23.8267 27.2165 23.664 27.2115 23.4928V19.1471C27.2157 18.9758 27.2873 18.8126 27.4116 18.6914C27.5358 18.5701 27.703 18.5002 27.8786 18.4961V18.4798ZM17.3682 18.4798H22.7418C22.9172 18.4847 23.0839 18.5549 23.208 18.6759C23.332 18.797 23.4039 18.9597 23.4089 19.1309V23.4928C23.4031 23.6637 23.331 23.826 23.2071 23.9469C23.0832 24.0678 22.9169 24.1382 22.7418 24.1439H17.3682C17.1929 24.139 17.0261 24.0688 16.9021 23.9478C16.7781 23.8267 16.7062 23.664 16.7011 23.4928V19.1471C16.7062 18.976 16.7781 18.8133 16.9021 18.6922C17.0261 18.5712 17.1929 18.501 17.3682 18.4961V18.4798ZM6.74783 18.4798H12.1214C12.2968 18.4847 12.4635 18.5549 12.5876 18.6759C12.7116 18.797 12.7835 18.9597 12.7885 19.1309V23.4928C12.7827 23.6637 12.7105 23.826 12.5867 23.9469C12.4628 24.0678 12.2965 24.1382 12.1214 24.1439H6.74783C6.56959 24.1431 6.39863 24.0748 6.27104 23.9533C6.14346 23.8318 6.06923 23.6667 6.06404 23.4928V19.1471C6.0684 18.973 6.14236 18.8074 6.27012 18.6858C6.39789 18.5641 6.56933 18.496 6.74783 18.4961V18.4798ZM27.8786 27.7539H33.2488C33.4274 27.7547 33.5987 27.8229 33.7269 27.9443C33.855 28.0657 33.9299 28.2308 33.936 28.4049V32.7669C33.9351 32.9442 33.8623 33.1139 33.7335 33.239C33.6048 33.364 33.4305 33.4342 33.2488 33.4342H27.8786C27.7004 33.4292 27.5312 33.3567 27.4068 33.2322C27.2823 33.1077 27.2123 32.9409 27.2115 32.7669V28.4212C27.2165 28.2501 27.2884 28.0874 27.4124 27.9663C27.5365 27.8453 27.7032 27.7751 27.8786 27.7702V27.7539ZM17.3682 27.7539H22.7418C22.9172 27.7588 23.0839 27.829 23.208 27.95C23.332 28.0711 23.4039 28.2338 23.4089 28.4049V32.7669C23.4081 32.9409 23.3381 33.1077 23.2137 33.2322C23.0892 33.3567 22.92 33.4292 22.7418 33.4342H17.3682C17.1901 33.4292 17.0209 33.3567 16.8964 33.2322C16.7719 33.1077 16.7019 32.9409 16.7011 32.7669V28.4212C16.707 28.2504 16.7791 28.0881 16.903 27.9672C17.0268 27.8463 17.1932 27.7759 17.3682 27.7702V27.7539ZM6.74783 27.7539H12.1214C12.2968 27.7588 12.4635 27.829 12.5876 27.95C12.7116 28.0711 12.7835 28.2338 12.7885 28.4049V32.7669C12.7877 32.9409 12.7177 33.1077 12.5932 33.2322C12.4688 33.3567 12.2996 33.4292 12.1214 33.4342H6.74783C6.56675 33.4334 6.39333 33.3628 6.26529 33.2379C6.13724 33.1129 6.06492 32.9436 6.06404 32.7669V28.4212C6.06923 28.2473 6.14346 28.0822 6.27104 27.9608C6.39863 27.8393 6.56959 27.771 6.74783 27.7702V27.7539ZM26.2175 1.44857C26.2175 0.651042 27.018 0 28.0187 0C29.0193 0 29.8299 0.651042 29.8299 1.44857V8.18359C29.8299 8.98438 29.0227 9.63216 28.0187 9.63216C27.0147 9.63216 26.2108 8.98112 26.2108 8.18359V1.44857H26.2175ZM10.0067 1.44857C10.0067 0.651042 10.8205 0 11.8212 0C12.8219 0 13.6291 0.651042 13.6291 1.44857V8.18359C13.6291 8.98438 12.8219 9.63216 11.8212 9.63216C10.8205 9.63216 10.0067 8.98438 10.0067 8.18359V1.44857ZM1.2008 14.2773V35.9505C1.20344 36.7129 1.51494 37.4434 2.06735 37.9825C2.61975 38.5216 3.36822 38.8256 4.14943 38.8281H35.8372C36.619 38.8264 37.3683 38.5228 37.9215 37.9836C38.4746 37.4444 38.7866 36.7135 38.7892 35.9505V14.2773H1.2008Z" fill="#191B28"/>
</svg>
