<svg width="37" height="41" viewBox="0 0 37 41" fill="none" xmlns="http://www.w3.org/2000/svg">
<g clip-path="url(#clip0_367_3309)">
<path fill-rule="evenodd" clip-rule="evenodd" d="M22.9669 24.2758C23.5589 23.8766 24.056 23.3726 24.4281 22.7942C23.6617 22.4685 23.1066 22.042 22.8881 21.4916C22.8881 21.4493 22.8559 21.407 22.8416 21.3646C21.6161 22.2527 20.1101 22.7605 18.5441 22.8137C17.2315 22.8006 15.9532 22.4309 14.8734 21.7521C14.637 22.3122 14.0068 22.729 13.1473 23.0547C13.718 23.708 14.4282 24.2497 15.2351 24.647C16.4647 25.2473 17.8525 25.5279 19.2461 25.4578C20.5867 25.4054 21.8808 24.9955 22.9669 24.279V24.2758ZM29.0335 23.6245C30.6953 24.005 32.3113 24.5351 33.8574 25.2071C37.0375 26.7017 37.5639 30.5344 38.0367 33.8656C38.1298 34.5168 38.2193 35.1681 38.3196 35.7575C38.3912 36.1645 38.4843 36.5846 38.5774 37.0014C38.8178 37.9411 38.9593 38.8995 39 39.8636C38.9991 39.9011 38.9821 39.9367 38.9526 39.9629C38.9232 39.989 38.8836 40.0037 38.8424 40.0037H30.6056V38.128C30.5948 38.01 30.5356 37.9 30.4398 37.8198C30.3439 37.7396 30.2184 37.6951 30.0882 37.6951C29.9579 37.6951 29.8324 37.7396 29.7365 37.8198C29.6407 37.9 29.5815 38.01 29.5707 38.128V40.0037H8.31264V38.128C8.30183 38.01 8.24263 37.9 8.14677 37.8198C8.05092 37.7396 7.92541 37.6951 7.79515 37.6951C7.66489 37.6951 7.53939 37.7396 7.44353 37.8198C7.34768 37.9 7.28848 38.01 7.27767 38.128V40.0037H-0.840928C-0.882106 40.0037 -0.921652 39.989 -0.951102 39.9629C-0.980552 39.9367 -0.997566 39.9011 -0.998501 39.8636C-1.02715 38.1541 -0.640381 36.4836 -0.235704 34.8001L-0.217798 34.7187C-0.0387378 33.9665 0.0937668 33.1654 0.22269 32.3611C0.688247 29.5054 1.16813 26.591 3.83971 25.168C5.00298 24.5908 6.23925 24.1447 7.52119 23.8394C7.77546 23.7743 8.02972 23.7124 8.29115 23.6538C5.53004 23.5789 2.84772 22.9114 2.38932 21.7359C2.38206 21.7184 2.37881 21.6997 2.37979 21.681C2.38077 21.6624 2.38595 21.6441 2.39501 21.6273C2.40407 21.6105 2.41683 21.5956 2.43248 21.5834C2.44813 21.5713 2.46635 21.5622 2.48601 21.5568H2.52183C3.30142 21.5168 4.05803 21.3021 4.72415 20.9316C5.39027 20.5612 5.94519 20.0465 6.33939 19.4337C7.17023 18.2223 7.6143 16.5942 7.83634 14.8228C7.94735 13.9208 8.01898 13.0057 8.08702 12.1005C8.44514 7.45051 8.77461 2.96334 14.9379 0.703474C15.8647 0.362321 16.8402 0.143029 17.8351 0.0522153C19.9688 -0.145579 22.1174 0.264042 23.984 1.22448C25.9815 2.2731 27.5272 3.90831 28.3674 5.86144C28.823 6.90394 29.1112 8.0006 29.2233 9.11773C29.2233 12.0093 29.7032 15.5131 31.0497 18.0693C32.0632 20.0003 33.5566 21.3907 35.7053 21.547C35.7458 21.5511 35.783 21.5694 35.8091 21.5979C35.8351 21.6264 35.848 21.6631 35.845 21.7V21.7456C35.3293 23.0221 32.1456 23.6734 29.0657 23.6017L29.0335 23.6245ZM21.0331 5.72793C17.6238 8.85723 14.0426 10.0946 10.2716 10.9478C10.2324 11.1289 10.2203 11.314 10.2357 11.4981C10.2357 16.2262 14.1751 21.8987 18.5334 21.8987C22.8917 21.8987 27.3324 16.2262 27.3324 11.4981C27.3433 10.7794 27.2223 10.064 26.9743 9.38149C23.6724 9.34893 22.3832 7.83801 21.0438 5.72793H21.0331ZM23.0959 24.9629L19.0849 39.7529L27.0746 33.8037L23.3537 30.2836L29.6889 27.9554L29.8464 24.0478C28.02 23.8004 26.8239 23.5594 25.13 23.2338C24.5601 23.9038 23.8758 24.4865 23.103 24.9596L23.0959 24.9629ZM19.0312 39.792L15.185 25.5132C14.1537 25.0461 13.2562 24.3672 12.5635 23.5301C10.9162 23.7092 9.90627 23.7352 7.976 23.9534L8.06553 28.128L14.4472 30.2446L10.5831 33.9307L18.9238 39.8734L19.0312 39.792Z" fill="black"/>
</g>
<defs>
<clipPath id="clip0_367_3309">
<rect width="37" height="41" fill="white"/>
</clipPath>
</defs>
</svg>
