<svg width="40" height="40" viewBox="0 0 40 40" fill="none" xmlns="http://www.w3.org/2000/svg">
<path d="M26.5658 1.53959C26.5658 0.690048 27.4056 0 28.444 0C29.4824 0 30.3223 0.690048 30.3223 1.53959V8.28383C30.3223 9.13337 29.4824 9.82342 28.444 9.82342C27.4056 9.82342 26.5658 9.13337 26.5658 8.28383V1.53959ZM21.5202 33.7896C21.4095 33.7896 21.3216 33.3241 21.3216 32.748C21.3216 32.1719 21.4095 31.7064 21.5202 31.7064H26.6602C26.7708 31.7064 26.8587 32.1719 26.8587 32.748C26.8587 33.3241 26.7708 33.7896 26.6602 33.7896H21.5202ZM5.15951 21.8374C5.04883 21.8374 4.96094 21.372 4.96094 20.7958C4.96094 20.2197 5.04883 19.7542 5.15951 19.7542H10.2995C10.4102 19.7542 10.498 20.2197 10.498 20.7958C10.498 21.372 10.4102 21.8374 10.2995 21.8374H5.15951ZM13.3398 21.8374C13.2292 21.8374 13.1413 21.372 13.1413 20.7958C13.1413 20.2197 13.2292 19.7542 13.3398 19.7542H18.4798C18.5905 19.7542 18.6784 20.2197 18.6784 20.7958C18.6784 21.372 18.5905 21.8374 18.4798 21.8374H13.3398ZM21.5202 21.8374C21.4095 21.8374 21.3216 21.372 21.3216 20.7958C21.3216 20.2197 21.4095 19.7542 21.5202 19.7542H26.6602C26.7708 19.7542 26.8587 20.2197 26.8587 20.7958C26.8587 21.372 26.7708 21.8374 26.6602 21.8374H21.5202ZM29.7038 21.8374C29.5931 21.8374 29.5052 21.372 29.5052 20.7958C29.5052 20.2197 29.5931 19.7542 29.7038 19.7542H34.8438C34.9544 19.7542 35.0423 20.2197 35.0423 20.7958C35.0423 21.372 34.9544 21.8374 34.8438 21.8374H29.7038ZM5.15951 27.8135C5.04883 27.8135 4.96094 27.348 4.96094 26.7719C4.96094 26.1958 5.04883 25.7303 5.15951 25.7303H10.2995C10.4102 25.7303 10.498 26.1958 10.498 26.7719C10.498 27.348 10.4102 27.8135 10.2995 27.8135H5.15951ZM13.3398 27.8135C13.2292 27.8135 13.1413 27.348 13.1413 26.7719C13.1413 26.1958 13.2292 25.7303 13.3398 25.7303H18.4798C18.5905 25.7303 18.6784 26.1958 18.6784 26.7719C18.6784 27.348 18.5905 27.8135 18.4798 27.8135H13.3398ZM21.5202 27.8135C21.4095 27.8135 21.3216 27.348 21.3216 26.7719C21.3216 26.1958 21.4095 25.7303 21.5202 25.7303H26.6602C26.7708 25.7303 26.8587 26.1958 26.8587 26.7719C26.8587 27.348 26.7708 27.8135 26.6602 27.8135H21.5202ZM29.7038 27.8135C29.5931 27.8135 29.5052 27.348 29.5052 26.7719C29.5052 26.1958 29.5931 25.7303 29.7038 25.7303H34.8438C34.9544 25.7303 35.0423 26.1958 35.0423 26.7719C35.0423 27.348 34.9544 27.8135 34.8438 27.8135H29.7038ZM5.15951 33.7896C5.04883 33.7896 4.96094 33.3241 4.96094 32.748C4.96094 32.1719 5.04883 31.7064 5.15951 31.7064H10.2995C10.4102 31.7064 10.498 32.1719 10.498 32.748C10.498 33.3241 10.4102 33.7896 10.2995 33.7896H5.15951ZM13.3398 33.7896C13.2292 33.7896 13.1413 33.3241 13.1413 32.748C13.1413 32.1719 13.2292 31.7064 13.3398 31.7064H18.4798C18.5905 31.7064 18.6784 32.1719 18.6784 32.748C18.6784 33.3241 18.5905 33.7896 18.4798 33.7896H13.3398ZM9.63867 1.53959C9.63867 0.690048 10.4785 0 11.5169 0C12.5553 0 13.3952 0.690048 13.3952 1.53959V8.28383C13.3952 9.13337 12.5553 9.82342 11.5169 9.82342C10.4785 9.82342 9.63867 9.13337 9.63867 8.28383V1.53959ZM2.08333 14.7514H37.9134V6.98836C37.9134 6.72797 37.806 6.49036 37.6335 6.31459C37.4609 6.14208 37.2233 6.03467 36.9596 6.03467H33.5286C32.9525 6.03467 32.487 5.56921 32.487 4.99308C32.487 4.41696 32.9525 3.9515 33.5286 3.9515H36.9629C37.7995 3.9515 38.5579 4.29327 39.1081 4.84336C39.6582 5.39344 40 6.15184 40 6.98836V15.7962V36.9631C40 37.7997 39.6582 38.5581 39.1081 39.1081C38.5579 39.6582 37.7995 40 36.9629 40H3.03711C2.20052 40 1.44206 39.6582 0.891927 39.1081C0.341797 38.5548 0 37.7964 0 36.9599V15.793V6.98836C0 6.15184 0.341797 5.39344 0.891927 4.84336C1.44206 4.29327 2.20052 3.9515 3.03711 3.9515H6.70573C7.2819 3.9515 7.7474 4.41696 7.7474 4.99308C7.7474 5.56921 7.2819 6.03467 6.70573 6.03467H3.03711C2.77669 6.03467 2.53906 6.14208 2.36328 6.31459C2.19076 6.4871 2.08333 6.72471 2.08333 6.98836V14.7514ZM37.9167 16.8378H2.08333V36.9599C2.08333 37.2203 2.19076 37.4579 2.36328 37.6337C2.53581 37.8062 2.77344 37.9136 3.03711 37.9136H36.9629C37.2233 37.9136 37.4609 37.8062 37.6367 37.6337C37.8092 37.4611 37.9167 37.2235 37.9167 36.9599V16.8378ZM16.416 6.03467C15.8398 6.03467 15.3743 5.56921 15.3743 4.99308C15.3743 4.41696 15.8398 3.9515 16.416 3.9515H23.4115C23.9876 3.9515 24.4531 4.41696 24.4531 4.99308C24.4531 5.56921 23.9876 6.03467 23.4115 6.03467H16.416Z" fill="black"/>
</svg>
