<svg width="40" height="40" viewBox="0 0 40 40" fill="none" xmlns="http://www.w3.org/2000/svg">
<g clip-path="url(#clip0_367_3306)">
<path fill-rule="evenodd" clip-rule="evenodd" d="M30.3453 13.9099C30.9542 13.9108 31.5493 14.145 32.0553 14.583C32.5613 15.021 32.9554 15.6431 33.188 16.3707C33.4206 17.0983 33.4811 17.8987 33.3619 18.6707C33.2427 19.4428 32.9492 20.1518 32.5184 20.7082C32.0876 21.2646 31.5389 21.6434 30.9416 21.7967C30.3444 21.95 29.7254 21.8709 29.1629 21.5694C28.6004 21.2679 28.1196 20.7576 27.7814 20.103C27.4432 19.4483 27.2626 18.6787 27.2626 17.8914C27.2622 17.368 27.3417 16.8497 27.4965 16.3661C27.6513 15.8826 27.8784 15.4432 28.1648 15.0734C28.4512 14.7035 28.7912 14.4103 29.1654 14.2107C29.5395 14.011 29.9405 13.9088 30.3453 13.9099ZM32.7835 4.55808V3.29545H2.55886V31.2795H4.00092V34.5875H2.2431C1.65032 34.5891 1.08129 34.2864 0.661072 33.7458C0.45356 33.4781 0.289172 33.1599 0.177421 32.8095C0.0656699 32.4591 0.00877535 32.0835 0.0100301 31.7045V2.89983C0.0108794 2.13327 0.246112 1.39823 0.664432 0.85501C1.08275 0.311787 1.65022 0.00444306 2.2431 0L33.0992 0C33.6938 0.00111331 34.2638 0.306988 34.6842 0.850571C35.1046 1.39415 35.3412 2.13109 35.3421 2.89983V4.55808H32.7835ZM35.7652 36.6961L30.4267 25.6734C30.3166 25.4464 30.1637 25.2594 29.9823 25.1297C29.801 25 29.5971 24.932 29.3899 24.932C29.1827 24.932 28.9789 25 28.7975 25.1297C28.6162 25.2594 28.4633 25.4464 28.3531 25.6734L25.8336 30.9217L28.5745 36.6961H27.4482L19.9612 21.2584C19.8331 20.995 19.6555 20.7778 19.4448 20.6273C19.2342 20.4768 18.9974 20.3978 18.7568 20.3978C18.5161 20.3978 18.2794 20.4768 18.0687 20.6273C17.8581 20.7778 17.6804 20.995 17.5523 21.2584L10.2444 36.6961H9.21902V11.2921H37.4352V36.6961H35.7652ZM37.7607 39.9832H8.90326C8.30951 39.9809 7.74052 39.6753 7.32037 39.1329C6.90023 38.5904 6.663 37.8552 6.66042 37.0875V10.8838C6.66471 10.1176 6.90269 9.38457 7.32266 8.84395C7.74262 8.30332 8.31063 7.99883 8.90326 7.99663H37.7607C38.3541 7.99885 38.9228 8.30464 39.3424 8.84719C39.762 9.38975 39.9986 10.125 40.0003 10.8923V37.1128C39.9926 37.8753 39.7536 38.6035 39.3347 39.1404C38.9158 39.6773 38.3505 39.9799 37.7607 39.9832Z" fill="black"/>
</g>
<defs>
<clipPath id="clip0_367_3306">
<rect width="40" height="40" fill="white"/>
</clipPath>
</defs>
</svg>
