<svg width="40" height="41" viewBox="0 0 40 41" fill="none" xmlns="http://www.w3.org/2000/svg">
<path fill-rule="evenodd" clip-rule="evenodd" d="M20.1569 0.88623C23.5487 0.88623 26.296 3.94503 26.296 7.72142C26.296 11.4978 23.5487 14.5566 20.1569 14.5566C16.7651 14.5566 14.0178 11.4978 14.0178 7.72142C14.021 3.94503 16.7683 0.88623 20.1569 0.88623ZM9.82843 18.1192C10.6943 16.7384 11.8759 16.6224 13.6076 16.3977H26.475C28.4737 16.8036 29.8831 17.1914 30.8434 19.0397L38.3985 30.5428C39.2611 31.8548 40.0032 32.6739 40 34.4207C39.9967 35.8486 39.3783 37.1606 38.3594 37.8963C37.0509 38.8458 36.0516 38.5668 34.73 38.0521L29.5446 36.0371V40.8862H10.3004V36.3234L4.27848 38.2949C2.3124 38.7697 0.909446 37.9579 0.339802 36.4321C-0.610688 33.8988 0.606721 32.1665 1.85343 30.2964L9.82843 18.1192ZM10.4795 28.4372V20.2212L20.0429 23.8345L29.7236 19.9566V28.5024C23.0409 26.944 22.761 33.6886 26.8917 35.8631L19.9258 38.2949L13.1975 35.6674C17.4421 33.4929 16.5763 26.5128 10.4795 28.4372Z" fill="black"/>
</svg>
