<svg width="40" height="40" viewBox="0 0 40 40" fill="none" xmlns="http://www.w3.org/2000/svg">
<path d="M3.91349 18.4983C3.95598 12.3501 3.99856 7.25951 4.04134 1.13536C4.04306 0.726957 4.39847 0.387234 4.86986 0.307864L4.86947 0.306693C9.9979 -0.566302 16.7246 0.355392 20.0545 3.96405C23.563 0.454039 30.0317 -0.322884 35.2319 0.296859C35.751 0.358904 36.1247 0.722743 36.1242 1.13856C36.1242 1.13856 36.1253 17.1465 36.1253 18.5737C36.1253 19.0442 35.6576 19.4256 35.0808 19.4256C34.9974 19.4256 34.9164 19.4174 34.8389 19.4027C32.8564 19.1477 30.1949 19.2978 28.1143 19.7526L28.0969 21.3599C28.3936 21.3528 28.6902 21.3502 28.9869 21.3517C31.6533 21.3655 35.2723 21.7202 37.9109 22.2749C37.9109 15.8239 37.9099 10.4286 37.9099 3.9788H38.9555C39.5322 3.9788 40 4.36019 40 4.83072V23.3895C40 23.8599 39.5322 24.2414 38.9555 24.2414C38.8377 24.2414 38.7245 24.2254 38.6188 24.1961C36.3168 23.6586 33.4209 23.2633 30.8942 23.1139C31.0493 23.3104 31.1673 23.5338 31.2563 23.7754H32.5952C32.6491 23.7754 32.7015 23.7805 32.7518 23.7901C33.9562 23.9477 34.5176 24.6339 34.7621 25.5079C34.8212 25.4946 34.8822 25.4879 34.9435 25.488H35.8859C35.9399 25.488 35.9924 25.4931 36.0429 25.5029C38.6298 25.8403 38.592 28.5577 38.5672 30.3303C38.5664 30.3896 38.5656 30.4457 38.5656 30.7584L38.6196 32.7228C38.6211 32.7434 38.6214 32.7641 38.6203 32.7852C38.5046 34.6975 37.4423 36.1907 36.3475 37.7297L36.2547 37.8618C35.7718 38.5506 35.2117 39.0767 34.5736 39.4364C33.924 39.8026 33.2055 39.9909 32.4168 39.9977L32.3545 40H24.2749V39.9981C23.4622 40.0113 22.8311 39.7214 22.3671 39.154C21.9935 38.6976 21.7452 38.058 21.6113 37.2519L16.509 30.9555C16.2077 30.6264 15.7981 30.1144 15.4908 29.5458C15.2603 29.1193 15.0856 28.6564 15.0491 28.2019C15.0059 27.6644 15.0975 27.2315 15.2853 26.8929C15.5186 26.4726 15.8891 26.1985 16.3379 26.0496C16.7566 25.9107 17.2295 25.8901 17.7062 25.9674C18.2777 26.0601 18.8668 26.2961 19.3691 26.6347C19.7895 26.918 20.4758 27.3777 21.1322 27.8153L21.7122 28.2018L21.7393 24.0639C21.3574 24.1794 20.9754 24.3058 20.5932 24.4435C20.4174 24.5382 20.2107 24.5875 20 24.5848C19.7894 24.5874 19.5828 24.5382 19.4071 24.4435C16.6065 23.4342 13.8134 23.034 11.0213 23.0486C8.15818 23.0633 4.29378 23.516 1.38153 24.1961C1.27579 24.2254 1.16258 24.2414 1.0445 24.2414C0.467751 24.2414 0 23.8599 0 23.3895V4.83072C0 4.36019 0.467751 3.9788 1.0445 3.9788H2.08909V22.2749C4.72794 21.7202 8.3467 21.3655 11.0131 21.3517C13.4761 21.339 15.9389 21.6185 18.4045 22.3005C16.8708 21.2865 15.1607 20.5438 13.3379 20.0589C11.0403 19.4474 7.58278 19.2443 5.03904 19.4224C4.4644 19.4608 3.96029 19.1122 3.91321 18.6436C3.90808 18.5952 3.90818 18.5466 3.91349 18.4983ZM34.9233 26.6024C34.9515 27.195 34.9092 27.8078 34.8708 28.3632C34.8479 28.6931 34.8268 28.9988 34.8268 29.279C34.8231 29.4249 34.7495 29.5637 34.6218 29.6658C34.494 29.7679 34.3223 29.8251 34.1434 29.8251C33.9645 29.8251 33.7928 29.7679 33.665 29.6658C33.5373 29.5637 33.4637 29.4249 33.46 29.279C33.46 29.014 33.4837 28.6718 33.5093 28.3022C33.605 26.9205 33.7328 25.0729 32.5495 24.8901H31.4817C31.5349 25.55 31.4868 26.2482 31.4435 26.8737C31.4207 27.2034 31.3995 27.5091 31.3995 27.7893C31.3965 27.9355 31.3232 28.0749 31.1954 28.1775C31.0675 28.28 30.8954 28.3375 30.7161 28.3375C30.5368 28.3375 30.3646 28.28 30.2368 28.1775C30.109 28.0749 30.0356 27.9355 30.0326 27.7893C30.0326 27.5244 30.0564 27.1821 30.082 26.8126C30.1776 25.4309 30.3055 23.5831 29.122 23.4003H28.2255C28.1749 23.4003 28.1245 23.3957 28.0752 23.3866L28.0441 26.2626C28.0393 26.4079 27.9648 26.546 27.8365 26.6471C27.7083 26.7481 27.5365 26.8041 27.3582 26.8029C27.1799 26.8018 27.0092 26.7437 26.8829 26.641C26.7566 26.5383 26.6847 26.3993 26.6827 26.2539L26.7548 19.5507L26.7527 19.5066C26.7527 18.5367 26.2677 17.9252 25.648 17.6697C25.4206 17.5758 25.1762 17.5286 24.9347 17.5282C24.688 17.5286 24.4449 17.5766 24.2253 17.6684C23.6117 17.9227 23.1331 18.5368 23.1331 19.5297H23.1305L23.0578 30.6385C23.0542 30.7842 22.9805 30.9229 22.8527 31.0247C22.7248 31.1264 22.553 31.1831 22.3744 31.1826C22.1957 31.182 22.0245 31.1242 21.8977 31.0216C21.7708 30.919 21.6985 30.7799 21.6963 30.6342L21.703 29.6101C21.6625 29.5932 21.6243 29.573 21.5888 29.5498C21.1465 29.2608 20.706 28.97 20.2673 28.6775C19.6766 28.2836 19.0871 27.8887 18.4988 27.4926C18.1688 27.2701 17.7953 27.1173 17.4446 27.0603C17.2191 27.0238 17.0123 27.0278 16.8504 27.0815C16.7185 27.1253 16.6058 27.2123 16.5294 27.3502C16.4296 27.5301 16.3828 27.7867 16.4106 28.1323C16.4352 28.4388 16.5661 28.7752 16.7402 29.0974C16.9978 29.574 17.3473 30.0096 17.6051 30.2909C17.6203 30.3076 17.6343 30.3248 17.6469 30.3424L22.8372 36.7476C22.8962 36.8201 22.9335 36.9029 22.9458 36.9893C23.0497 37.6867 23.2312 38.2084 23.499 38.5356C23.6933 38.7731 23.9449 38.8941 24.2589 38.8875L24.2749 38.8873V38.8853H32.3545L32.411 38.8873C32.9174 38.881 33.3802 38.7586 33.7994 38.5221C34.2629 38.2608 34.6861 37.8554 35.0694 37.3088L35.1677 37.1724C36.1764 35.7544 37.1552 34.3781 37.258 32.7435L37.206 30.8478C37.2011 30.8208 37.1987 30.7935 37.1987 30.7662L37.2056 30.3216C37.2251 28.9346 37.2548 26.8103 35.8404 26.6027H34.9435L34.9233 26.6024ZM27.7954 18.0656C29.7781 17.6666 32.2031 17.4965 34.0366 17.6153V1.89277C29.4299 1.53806 23.7185 2.28338 21.0609 5.73641V20.6771C21.2933 20.5505 21.5276 20.4263 21.7639 20.3046L21.769 19.5297H21.7663C21.7663 18.0554 22.5723 17.1042 23.6059 16.6755C24.0177 16.5052 24.473 16.4168 24.9347 16.4178C25.3959 16.4183 25.8506 16.5071 26.2621 16.6769C26.9061 16.9424 27.4634 17.4073 27.7954 18.0656ZM33.2847 32.3705C33.2866 32.2508 33.3463 32.1365 33.4507 32.0524C33.5552 31.9683 33.696 31.9212 33.8428 31.9212C33.9896 31.9212 34.1305 31.9683 34.2349 32.0524C34.3394 32.1365 34.399 32.2508 34.401 32.3705V34.4524C34.399 34.5721 34.3394 34.6864 34.2349 34.7705C34.1305 34.8546 33.9896 34.9017 33.8428 34.9017C33.696 34.9017 33.5552 34.8546 33.4507 34.7705C33.3463 34.6864 33.2866 34.5721 33.2847 34.4524V32.3705ZM29.9855 31.4507C29.9874 31.331 30.047 31.2167 30.1515 31.1326C30.2559 31.0485 30.3968 31.0014 30.5436 31.0014C30.6904 31.0014 30.8312 31.0485 30.9357 31.1326C31.0402 31.2167 31.0998 31.331 31.1017 31.4507V34.4523C31.0984 34.5712 31.0382 34.6844 30.9338 34.7675C30.8295 34.8507 30.6895 34.8973 30.5436 34.8973C30.3977 34.8973 30.2576 34.8507 30.1533 34.7675C30.049 34.6844 29.9888 34.5712 29.9855 34.4523V31.4507ZM18.9722 20.5134V5.71105C16.5201 2.18778 10.6563 1.32391 6.11713 1.85273L5.9999 17.6692C8.41761 17.5989 11.7574 17.8499 13.9826 18.4419C15.7547 18.9133 17.4329 19.6006 18.9722 20.5134Z" fill="black"/>
</svg>
