<svg width="41" height="40" viewBox="0 0 41 40" fill="none" xmlns="http://www.w3.org/2000/svg">
<g clip-path="url(#clip0_367_3314)">
<path fill-rule="evenodd" clip-rule="evenodd" d="M0.827746 0H6.19762C6.24643 0.000833357 6.29298 0.0182488 6.3275 0.0485935C6.36203 0.0789383 6.38184 0.119855 6.38279 0.16276V27.1419L13.6636 26.6927H13.7451H13.8339C14.6005 26.6471 15.1857 26.6081 15.5856 26.2923L16.2745 25.5859C16.3419 25.5179 16.4356 25.4742 16.5375 25.4634C16.6395 25.4526 16.7423 25.4753 16.8263 25.5273L20.2889 27.5716C20.348 27.6079 20.3957 27.6568 20.4275 27.7138C20.4592 27.7707 20.474 27.8338 20.4704 27.8971C20.4704 28.0762 20.4 28.125 20.2445 28.2487C20.0915 28.3716 19.9491 28.5044 19.8186 28.6458C19.4791 29.0075 19.1076 29.3449 18.7076 29.6549C18.2979 29.9755 17.8392 30.2439 17.3447 30.4525C16.3078 30.8952 15.3264 30.9538 14.1635 31.0254H14.0747H13.9969L6.38279 31.5007V39.8372C6.38095 39.8799 6.36086 39.9204 6.32652 39.9505C6.29218 39.9807 6.24614 39.9984 6.19762 40H0.827746C0.778933 39.9992 0.732384 39.9818 0.697862 39.9514C0.663339 39.9211 0.643526 39.8801 0.642578 39.8372L0.642578 0.16276C0.642578 0.119594 0.662087 0.0781949 0.696813 0.0476714C0.731538 0.0171479 0.778637 0 0.827746 0ZM17.678 19.502L21.0111 13.278L20.6815 13.1966C20.1182 13.0068 19.518 12.9161 18.915 12.9297C18.2113 13.0208 17.5521 13.3919 16.8152 13.8086C16.5078 13.9811 16.1893 14.1634 15.8449 14.3392C15.5856 14.4466 15.2857 14.6191 15.0338 14.7461L11.8119 16.3737C11.7171 16.4206 11.605 16.4325 11.5002 16.4069C11.3953 16.3813 11.3064 16.3202 11.2527 16.237L9.22326 13.099C9.19635 13.0578 9.17902 13.0123 9.17227 12.9652C9.16553 12.9181 9.16951 12.8703 9.18398 12.8246C9.19846 12.7788 9.22313 12.7361 9.25658 12.6988C9.29003 12.6615 9.33158 12.6305 9.37881 12.6074C10.6491 11.9564 12.1267 11.3053 13.3599 10.6087C14.8413 9.79818 16.0523 9.15039 17.4558 8.8444C18.8594 8.53841 20.4185 8.58398 22.5998 9.16992C23.3849 9.36198 24.2848 9.65169 25.0255 9.88607C25.3958 10 25.6921 10.1009 25.9291 10.1693C29.5806 11.2402 30.8139 13.3138 31.773 14.9219C32.1878 15.6152 32.547 16.224 33.0099 16.5495C33.1988 16.6862 33.6284 16.6374 34.121 16.5788C34.4448 16.5363 34.7713 16.5113 35.0986 16.5039C36.6985 16.3704 38.3058 16.2891 39.913 16.1784C40.0199 16.1712 40.1258 16.2013 40.2076 16.2622C40.2894 16.3232 40.3406 16.41 40.35 16.5039L40.6389 20.1367C40.6422 20.2283 40.6058 20.3176 40.537 20.3865C40.4683 20.4554 40.3723 20.4988 40.2685 20.5078L35.8245 20.8008C33.8506 20.9245 32.4211 21.0156 30.2695 19.9967L30.225 19.974C29.0927 19.2558 28.1763 18.3061 27.5549 17.207L24.9848 22.2656C25.6656 22.8816 26.3891 23.46 27.1512 23.9974C29.3733 25.625 31.2249 26.9954 30.625 30.6478C30.5676 30.9698 30.4872 31.2884 30.3843 31.6016C30.2843 31.9271 30.1769 32.2201 30.0621 32.526C29.214 34.6549 28.4993 36.9206 27.7327 39.0788C27.7102 39.1513 27.6624 39.2159 27.5959 39.2632C27.5295 39.3105 27.4477 39.3382 27.3623 39.3424L23.0442 39.5964C22.9965 39.6047 22.9475 39.6047 22.8998 39.5964C22.7957 39.5685 22.7083 39.5057 22.6563 39.4217C22.6043 39.3377 22.592 39.2391 22.622 39.1471C23.5293 36.5039 24.4737 33.8574 25.3588 31.2109C25.4861 30.8907 25.5936 30.5647 25.681 30.2344C25.7533 29.9511 25.7634 29.6583 25.7106 29.3717V29.2936C25.7009 29.035 25.6071 28.7842 25.4403 28.571C24.4287 27.8751 23.3421 27.2678 22.1961 26.7578C20.8074 26.084 19.4519 25.4297 18.4002 24.4792C17.655 23.8398 17.1851 22.9931 17.0707 22.0833C16.9954 21.1899 17.2058 20.2958 17.678 19.502ZM30.2954 1.99544C31.4977 1.92296 32.6837 2.27259 33.5932 2.96766C34.5026 3.66272 35.0614 4.64646 35.1468 5.70313C35.1886 6.22722 35.1126 6.75342 34.9231 7.25168C34.7335 7.74995 34.4342 8.21052 34.0422 8.6071C33.2504 9.40804 32.1291 9.89971 30.925 9.97396C29.7208 10.0482 28.5324 9.69894 27.6212 9.00301C26.71 8.30707 26.1506 7.32147 26.0661 6.26302C25.9835 5.20794 26.3792 4.16698 27.1667 3.36741C27.9542 2.56785 29.0697 2.07463 30.2695 1.99544H30.2954ZM1.8795 11.3932H3.12013V16.6309H1.8795V11.3932Z" fill="black"/>
</g>
<defs>
<clipPath id="clip0_367_3314">
<rect width="40" height="40" fill="white" transform="translate(0.642578)"/>
</clipPath>
</defs>
</svg>
