<svg id="Layer_1" data-name="Layer 1" xmlns="http://www.w3.org/2000/svg" viewBox="0 0 122.88 103.54"><defs><style>.cls-1{fill-rule:evenodd;}</style></defs><title>man-with-megaphone</title><path class="cls-1" d="M29.19,6.88A21.48,21.48,0,1,1,7.71,28.35,21.47,21.47,0,0,1,29.19,6.88ZM0,103.54,1.49,69.26c.58-10.06,13.11-16.58,23.17-16l9,.52c9,.53,19.45,6.86,31.7,10.73l-3.76-12a6.28,6.28,0,0,1-1.17-.31,8.74,8.74,0,0,1-3.82-3h0a13.6,13.6,0,0,1-1.88-3.57,13.38,13.38,0,0,1-.55-2,14.54,14.54,0,0,1-.23-2,8.71,8.71,0,0,1,.88-4.47,5.5,5.5,0,0,1,2.81-2.58c0-.07.08-.14.12-.2a2,2,0,0,1,.25-.26l0,0a1.25,1.25,0,0,1,.19-.15c1.66-3.71,5.88-5.78,9.89-5.6a68.36,68.36,0,0,0,7.46-6.34,44.33,44.33,0,0,0,6.75-8.74l0-.05a20.24,20.24,0,0,1,2.11-3,2.34,2.34,0,0,1,2.36-.88,5.2,5.2,0,0,1,2,.72,11.12,11.12,0,0,1,2.06,1.62A31.19,31.19,0,0,1,95.52,18a63.22,63.22,0,0,1,4.31,8.85,57.89,57.89,0,0,1,2.93,9.55,23.34,23.34,0,0,1,.51,7.46,9.06,9.06,0,0,1-.6,2.36,5.6,5.6,0,0,1-1.13,1.76.46.46,0,0,0-.07.07l-.1.07a3.93,3.93,0,0,1-.92.49,3.49,3.49,0,0,1-.94.19h-.33a2.06,2.06,0,0,0-.26,0h0a.86.86,0,0,1-.32,0,.89.89,0,0,1-.31-.08l-.43-.07c-1-.18-2-.44-3.12-.71l-.07,0a35.39,35.39,0,0,0-14.59-1.13L87,69.07c7.13,26.76-16.13,18.87-31.4,14l-5.21-1-1,21.43ZM104.92,16.63a1.36,1.36,0,0,1-1.42-2.32l8.42-5.17a1.36,1.36,0,0,1,1.41,2.33l-8.41,5.16ZM99.61,9.38a1.36,1.36,0,1,1-1.8-2.05l8-7a1.37,1.37,0,0,1,1.93.12,1.36,1.36,0,0,1-.13,1.92l-8,7Zm12.47,33a1.36,1.36,0,0,1-.18-2.71l9.53-.65a1.36,1.36,0,1,1,.18,2.72l-9.53.64Zm-.55-9.26a1.36,1.36,0,0,1-.44-2.68L119.87,29a1.36,1.36,0,1,1,.44,2.68l-8.78,1.44Zm-2.11-8.45a1.38,1.38,0,0,1-1.76-.79,1.36,1.36,0,0,1,.79-1.76l8.94-3.41a1.36,1.36,0,1,1,1,2.54l-8.94,3.42ZM91.69,37.62a35.6,35.6,0,0,0,3.53,5.25,19.43,19.43,0,0,0,3.83,3.64h.34l.31-.06a1.91,1.91,0,0,0,.32-.16,3.39,3.39,0,0,0,.66-1.1,7.11,7.11,0,0,0,.4-1.69,21.45,21.45,0,0,0-.51-6.85,55.17,55.17,0,0,0-2.8-9,61.68,61.68,0,0,0-4.11-8.47,29.2,29.2,0,0,0-4.34-5.83,9.12,9.12,0,0,0-1.52-1.23c-1-.6-1.29-.82-1.89-.07l0,.05a12.82,12.82,0,0,0-.53,5.89,44.52,44.52,0,0,0,1.74,8.61,6.11,6.11,0,0,1,5.5.85,5.47,5.47,0,0,1,1.68,2.27,6.41,6.41,0,0,1,.43,2.83,6.54,6.54,0,0,1-3,5.12Z"/></svg>