<svg width="40" height="40" viewBox="0 0 40 40" fill="none" xmlns="http://www.w3.org/2000/svg">
<path d="M17.5076 37.8774C18.1578 37.8774 18.6888 38.3527 18.6888 38.9387C18.6888 39.5247 18.1614 40 17.5076 40H2.74516C1.99024 40 1.30395 39.7233 0.805488 39.274C0.307025 38.828 0 38.2127 0 37.5291V2.47416C0 1.79051 0.307025 1.17523 0.805488 0.725971C1.30395 0.276715 1.98663 0 2.74516 0H36.4456C37.2005 0 37.8868 0.279971 38.3853 0.725971C38.8837 1.17523 39.1908 1.79051 39.1908 2.47416V20.0374C39.1908 20.6234 38.6634 21.0987 38.0132 21.0987C37.3631 21.0987 36.8357 20.6234 36.8357 20.0374V2.47416C36.8357 2.37975 36.7924 2.29185 36.7201 2.23C36.6479 2.16489 36.5504 2.12582 36.4492 2.12582H2.74516C2.64041 2.12582 2.54289 2.16489 2.47064 2.22674C2.40202 2.29511 2.35867 2.37975 2.35867 2.47416V37.5291C2.35867 37.6235 2.40201 37.7114 2.47426 37.7733C2.5465 37.8384 2.64402 37.8774 2.74877 37.8774H17.5076ZM12.2593 18.8557C12.0354 18.5074 12.1979 17.5112 12.6783 17.1596C14.0509 16.4369 15.9436 16.6615 17.2656 15.8281C17.3415 15.7239 17.4245 15.5742 17.5076 15.4082C17.6268 15.1607 17.7388 14.8905 17.8074 14.705C17.5148 14.3924 17.262 14.0409 17.0236 13.6958L16.229 12.5564C15.94 12.1657 15.7883 11.8076 15.7774 11.5146C15.7738 11.3779 15.7991 11.2509 15.8569 11.1402C15.9147 11.023 16.005 10.9286 16.1314 10.8537C16.1892 10.8179 16.2542 10.7886 16.3229 10.7658C16.2687 10.1473 16.2506 9.36925 16.2867 8.7149C16.3048 8.56189 16.3373 8.40563 16.3843 8.24937C16.5865 7.59502 17.0958 7.06763 17.728 6.70627C18.0747 6.50769 18.4576 6.35468 18.8549 6.25376C19.1078 6.18865 18.6382 5.46268 18.9019 5.43664C20.1661 5.31944 22.2069 6.35794 23.0882 7.21738C23.5289 7.64711 23.807 8.22007 23.8684 8.97534L23.8179 10.8342C24.0382 10.8961 24.1791 11.0198 24.2369 11.2249C24.3019 11.4528 24.2333 11.7685 24.0165 12.2048C24.0129 12.2113 24.0093 12.221 24.0021 12.2276L23.0955 13.5721C22.7632 14.0669 22.4236 14.5617 21.983 14.9524C22.0227 15.0045 22.066 15.0566 22.1058 15.1087C22.2864 15.3463 22.467 15.584 22.6981 15.7956C22.7054 15.8021 22.7126 15.8118 22.7162 15.8183C23.7601 16.4825 26.2994 16.6452 27.2746 17.1336L27.3143 17.1531C27.8164 17.5014 27.9717 18.4976 27.7406 18.8459H12.2593V18.8557ZM36.9477 25.7313C36.7562 25.5652 36.5359 25.4871 36.2831 25.4904C36.0266 25.4936 35.8099 25.5848 35.6329 25.754L34.17 27.1279L38.2769 30.7024L39.7543 29.3155C39.9312 29.1528 40.0035 28.9444 39.9999 28.7165C39.9963 28.4919 39.906 28.2836 39.7254 28.1305L36.9477 25.7313ZM30.5363 37.8188C29.9945 37.9751 29.4527 38.1346 28.9145 38.2941C28.3727 38.4569 27.8309 38.6197 27.2927 38.7825C26.0176 39.1601 25.3024 39.3684 25.1507 39.4075C25.0062 39.4466 25.0893 38.9094 25.4144 37.783L26.4294 34.2573L32.8661 28.3389L36.9694 31.8971L30.5363 37.8188ZM11.4647 31.0442C10.8145 31.0442 10.2835 30.5624 10.2835 29.9666C10.2835 29.3709 10.8109 28.8891 11.4647 28.8891H19.487C20.1372 28.8891 20.6682 29.3709 20.6682 29.9666C20.6682 30.5624 20.1408 31.0442 19.487 31.0442H11.4647ZM11.4647 24.3086C10.8145 24.3086 10.2871 23.8333 10.2871 23.2441C10.2871 22.6581 10.8145 22.1828 11.4647 22.1828H27.3757C28.0259 22.1828 28.5533 22.6581 28.5533 23.2441C28.5533 23.8301 28.0259 24.3086 27.3757 24.3086H11.4647Z" fill="black"/>
</svg>
