<svg width="40" height="40" viewBox="0 0 40 40" fill="none" xmlns="http://www.w3.org/2000/svg">
<g clip-path="url(#clip0_367_3311)">
<path d="M11.6886 37.0768C11.6691 36.569 11.5941 36.0612 11.4734 35.5632C10.9875 33.6003 9.75469 31.8067 8.23491 30.5046C8.17621 30.4525 8.11751 30.4037 8.05554 30.3548L6.68579 31.6895C7.74246 32.4968 8.5056 33.6035 8.81869 34.6354C8.98828 35.1953 9.0372 35.7455 8.94262 36.2403C8.835 36.8067 8.55452 37.2917 8.07511 37.6433C7.96749 37.7214 7.85334 37.7897 7.72941 37.8516C8.34254 38.1543 8.91979 38.3431 9.41877 38.3822C9.92101 38.4245 10.3613 38.3334 10.7331 38.1087C11.0886 37.8939 11.4049 37.5521 11.6886 37.0768ZM25.7384 23.1901C25.6079 23.1218 25.5036 23.0241 25.4286 22.9069L25.1709 23.1608C25.2655 23.2227 25.347 23.3041 25.409 23.4017C26.7396 25.4981 27.506 27.6302 27.5778 29.8047C27.6495 31.989 27.0201 34.183 25.559 36.3965C25.3144 36.7676 24.8187 36.8685 24.4469 36.6244C24.0751 36.3802 23.974 35.8854 24.2186 35.5143C25.4873 33.5938 26.0352 31.709 25.9732 29.8535C25.9112 27.9883 25.2329 26.1263 24.0523 24.2643L22.0074 26.2761C21.9879 26.2142 21.9683 26.1556 21.9487 26.0938L21.7922 26.2468L13.1856 37.7018C12.7453 38.5059 12.2039 39.0951 11.5647 39.4792C10.8896 39.8828 10.133 40.0489 9.2981 39.9805C8.02293 39.8763 6.40858 39.0821 4.89533 37.9265C4.84641 37.8972 4.79749 37.8614 4.75835 37.819C4.23655 37.4121 3.73104 36.9662 3.25489 36.4909C2.1754 35.4134 1.2394 34.1765 0.658885 32.946C0.0327135 31.6211 -0.192317 30.2832 0.218608 29.0951C0.482775 28.3334 0.998062 27.6563 1.81991 27.1159L13.8835 17.9525L20.4094 10.9896L28.08 0.442732C28.2105 0.263695 28.3996 0.156274 28.6018 0.120466C29.7237 -0.0943775 30.8652 -0.0129973 31.974 0.292992C33.8786 0.817081 35.6821 2.00849 37.0877 3.50914C38.4966 5.01304 39.5207 6.84247 39.8696 8.63284C40.0588 9.60289 40.049 10.5664 39.7979 11.4714C39.749 11.6537 39.6381 11.8067 39.4946 11.9108V11.9141L27.9495 20.2507L27.4864 20.7031C27.4864 20.765 27.4832 20.8268 27.4799 20.8887L26.5504 21.8034C28.2528 22.6921 29.6324 23.8086 30.6401 25.1921C31.6707 26.6081 32.3067 28.2845 32.486 30.2572C32.5252 30.6966 32.199 31.0873 31.7588 31.1263C31.3185 31.1654 30.9271 30.8399 30.888 30.4004C30.7347 28.7272 30.2064 27.3145 29.3454 26.1328C28.4746 24.9447 27.2581 23.9714 25.7384 23.1901ZM6.70862 29.4239C5.61282 28.7923 4.46484 28.431 3.40165 28.4375C3.13096 28.4408 2.86353 28.4668 2.60263 28.5222C2.14931 28.8412 1.86883 29.2155 1.72533 29.6224C1.46443 30.3744 1.6438 31.3021 2.10039 32.2657C2.59937 33.3268 3.42448 34.4043 4.3833 35.3646C4.78445 35.765 5.20842 36.1459 5.63891 36.4877C6.37923 36.6114 6.85864 36.5397 7.12281 36.3444C7.25 36.25 7.32827 36.1101 7.36088 35.9408C7.40654 35.6999 7.37719 35.4102 7.27935 35.0977C6.99235 34.1504 6.16398 33.112 5.03231 32.5293C4.63769 32.3275 4.48114 31.8457 4.68334 31.4518C4.72574 31.3705 4.77792 31.3021 4.83989 31.2435L6.70862 29.4239ZM21.2052 24.5768C19.9267 22.4805 17.5981 20.2409 15.3413 18.7305L15.0282 19.0658C14.9891 19.1146 14.9402 19.1602 14.888 19.2025L4.68008 26.9564C5.952 27.1973 7.25 27.7865 8.43712 28.6296L8.46647 28.6524L8.46973 28.6556C8.74368 28.8509 9.01111 29.0625 9.27201 29.2839C11.0299 30.7878 12.4583 32.8744 13.0258 35.1758L13.0356 35.2149L20.5105 25.267C20.5398 25.2214 20.5757 25.1791 20.6181 25.14L21.2052 24.5768ZM20.9116 12.7897C23.8175 14.2253 26.2406 16.5528 27.1244 18.864L38.3107 10.7845C38.4249 10.2018 38.4118 9.57685 38.2879 8.93557C37.9977 7.44469 37.1204 5.89521 35.9104 4.60289C34.6939 3.30406 33.1579 2.27867 31.5533 1.83922C30.7706 1.62437 29.9748 1.5495 29.1888 1.65367L21.6846 11.9597L21.6813 11.9564C21.6617 11.9824 21.6422 12.0085 21.6161 12.0345L20.9116 12.7897Z" fill="black"/>
</g>
<defs>
<clipPath id="clip0_367_3311">
<rect width="40" height="40" fill="white"/>
</clipPath>
</defs>
</svg>
