<svg width="40" height="40" viewBox="0 0 40 40" fill="none" xmlns="http://www.w3.org/2000/svg">
<g clip-path="url(#clip0_367_3303)">
<path fill-rule="evenodd" clip-rule="evenodd" d="M14.8306 21.0221C14.2841 21.0221 13.8424 20.5632 13.8424 20C13.8424 19.4336 14.2841 18.9779 14.8306 18.9779H27.8907C28.4372 18.9779 28.8789 19.4368 28.8789 20C28.8789 20.5664 28.4372 21.0221 27.8907 21.0221H14.8306ZM17.507 37.9492C18.1583 37.9492 18.6861 38.4082 18.6861 38.9746C18.6861 39.541 18.1583 40 17.507 40H2.74378C1.98765 40 1.30264 39.7331 0.804791 39.3001C0.306944 38.8672 0 38.2715 0 37.6139V2.38607C0 1.72852 0.306944 1.13281 0.804791 0.69987C1.30264 0.266927 1.98765 0 2.74378 0H36.4402C37.1963 0 37.8813 0.270182 38.3792 0.69987C38.877 1.13281 39.184 1.72852 39.184 2.38607V18.7077C39.184 19.2741 38.6562 19.7331 38.0049 19.7331C37.3535 19.7331 36.8257 19.2741 36.8257 18.7077V2.38607C36.8257 2.29492 36.7808 2.21029 36.7097 2.15169C36.6386 2.08984 36.545 2.05078 36.4402 2.05078H2.74378C2.63897 2.05078 2.54164 2.08984 2.47052 2.14844C2.40314 2.21354 2.35823 2.29492 2.35823 2.38607V37.6107C2.35823 37.7018 2.40314 37.7865 2.47052 37.8451C2.54164 37.9069 2.63897 37.946 2.74378 37.946H17.507V37.9492ZM36.9455 24.1992C36.7546 24.0397 36.5338 23.9648 36.2792 23.9681C36.0247 23.9714 35.8076 24.056 35.6279 24.222L34.1643 25.5469L38.2706 28.9941L39.7492 27.6562C39.9251 27.5 40 27.2982 39.9963 27.0768C39.9925 26.8587 39.9027 26.6602 39.723 26.5104L36.9455 24.1992ZM29.2757 37.1126C28.7329 37.2624 28.1939 37.4186 27.6549 37.5716C27.1121 37.7279 26.5731 37.8874 26.0341 38.0436C24.7576 38.4082 24.0427 38.61 23.8929 38.6458C23.747 38.6849 23.8331 38.1641 24.155 37.0801L25.1694 33.6784L32.8617 26.7188L36.9642 30.153L29.2757 37.1126ZM14.8306 28.304C14.2841 28.304 13.8387 27.8385 13.8387 27.2656C13.8387 26.6927 14.2841 26.2272 14.8306 26.2272H21.2652C21.8117 26.2272 22.2572 26.6927 22.2572 27.2656C22.2572 27.8385 21.8117 28.304 21.2652 28.304H14.8306ZM14.8306 13.7565C14.2841 13.7565 13.8424 13.2975 13.8424 12.7344C13.8424 12.168 14.2841 11.7122 14.8306 11.7122H27.8907C28.4372 11.7122 28.8789 12.1712 28.8789 12.7344C28.8789 13.3008 28.4372 13.7565 27.8907 13.7565H14.8306ZM9.16339 25.8659C9.93449 25.8659 10.5559 26.4095 10.5559 27.0768C10.5559 27.7474 9.93075 28.2878 9.16339 28.2878C8.39229 28.2878 7.77092 27.7441 7.77092 27.0768C7.77092 26.4095 8.39603 25.8659 9.16339 25.8659ZM9.16339 18.6979C9.93449 18.6979 10.5559 19.2415 10.5559 19.9089C10.5559 20.5794 9.93075 21.1198 9.16339 21.1198C8.39229 21.1198 7.77092 20.5762 7.77092 19.9089C7.77092 19.2415 8.39603 18.6979 9.16339 18.6979ZM9.16339 11.5299C9.93449 11.5299 10.5559 12.0736 10.5559 12.7409C10.5559 13.4115 9.93075 13.9518 9.16339 13.9518C8.39229 13.9518 7.77092 13.4082 7.77092 12.7409C7.77092 12.0703 8.39603 11.5299 9.16339 11.5299Z" fill="black"/>
</g>
<rect x="0.5" y="0.5" width="39" height="39" stroke="black"/>
<defs>
<clipPath id="clip0_367_3303">
<rect width="40" height="40" fill="white"/>
</clipPath>
</defs>
</svg>
