<svg width="40" height="40" viewBox="0 0 40 40" fill="none" xmlns="http://www.w3.org/2000/svg">
<path fill-rule="evenodd" clip-rule="evenodd" d="M0.679938 4.78229H8.91919L8.90828 4.65533V1.34451C8.90828 0.605518 9.76638 0 10.8208 0C11.8716 0 12.7334 0.608774 12.7334 1.34451V4.65533L12.7225 4.78229H26.7539L26.743 4.65533V1.34451C26.743 0.605518 27.6011 0 28.6519 0C29.7028 0 30.5645 0.608774 30.5645 1.34451V4.65533L30.5536 4.78229H39.3201C39.6946 4.78229 40 5.05575 40 5.39106V11.7262C40 12.0615 39.6946 12.335 39.3201 12.335H0.679938C0.305427 12.3317 0 12.0583 0 11.723V5.38781C0 5.05249 0.305427 4.78229 0.679938 4.78229ZM0.170894 13.7348H39.8327C39.9273 13.7348 40 13.8032 40 13.8846V39.8502C40 39.9316 39.9236 40 39.8327 40H0.170894C0.0799927 40 0 39.9316 0 39.8502V13.8878C0 13.8032 0.0763567 13.7348 0.170894 13.7348ZM35.3677 17.1759H30.3863C30.0845 17.1759 29.8409 17.381 29.8409 17.6316V21.7791C29.8409 22.0298 30.0845 22.2349 30.3863 22.2349H35.3713C35.6731 22.2349 35.9204 22.0298 35.9204 21.7791V17.6316C35.9167 17.381 35.6695 17.1759 35.3677 17.1759ZM4.4505 24.3933H9.43187C9.73366 24.3933 9.98091 24.5984 9.98091 24.849V28.9965C9.98091 29.2472 9.73366 29.4523 9.43187 29.4523H4.6214C4.31961 29.4523 4.07599 29.2472 4.07599 28.9965V24.6993C4.07599 24.4486 4.32324 24.2435 4.6214 24.2435L4.4505 24.3933ZM4.4505 31.6139H9.43187C9.73366 31.6139 9.98091 31.819 9.98091 32.0697V36.2171C9.98091 36.4678 9.73366 36.6729 9.43187 36.6729H4.61776C4.31597 36.6729 4.07236 36.4678 4.07236 36.2171V32.0697C4.07236 31.819 4.31961 31.6139 4.61776 31.6139H4.4505ZM4.4505 17.1759H9.43187C9.73366 17.1759 9.98091 17.381 9.98091 17.6316V21.7791C9.98091 22.0298 9.73366 22.2349 9.43187 22.2349H4.61776C4.31597 22.2349 4.07236 22.0298 4.07236 21.7791V17.6316C4.07236 17.381 4.31961 17.1759 4.61776 17.1759H4.4505ZM13.097 17.1759H18.082C18.3838 17.1759 18.6274 17.381 18.6274 17.6316V21.7791C18.6274 22.0298 18.3801 22.2349 18.082 22.2349H13.097C12.7952 22.2349 12.5479 22.0298 12.5479 21.7791V17.6316C12.5479 17.381 12.7952 17.1759 13.097 17.1759ZM13.097 24.3933H18.082C18.3838 24.3933 18.6274 24.5984 18.6274 24.849V28.9965C18.6274 29.2472 18.3801 29.4523 18.082 29.4523H13.097C12.7952 29.4523 12.5479 29.2472 12.5479 28.9965V24.6993C12.5479 24.4486 12.7952 24.2435 13.097 24.2435V24.3933ZM13.097 31.6139H18.082C18.3838 31.6139 18.6274 31.819 18.6274 32.0697V36.2171C18.6274 36.4678 18.3801 36.6729 18.082 36.6729H13.097C12.7952 36.6729 12.5479 36.4678 12.5479 36.2171V32.0697C12.5479 31.819 12.7952 31.6139 13.097 31.6139ZM21.7398 17.1759H26.7248C27.0266 17.1759 27.2739 17.381 27.2739 17.6316V21.7791C27.2739 22.0298 27.0266 22.2349 26.7248 22.2349H21.7398C21.4381 22.2349 21.1908 22.0298 21.1908 21.7791V17.6316C21.1944 17.381 21.4381 17.1759 21.7398 17.1759ZM21.7398 24.3933H26.7248C27.0266 24.3933 27.2739 24.5984 27.2739 24.849V28.9965C27.2739 29.2472 27.0266 29.4523 26.7248 29.4523H21.7398C21.4381 29.4523 21.1908 29.2472 21.1908 28.9965V24.6993C21.1908 24.4486 21.4381 24.2435 21.7398 24.2435V24.3933ZM35.3677 24.3933H30.3863C30.0845 24.3933 29.8409 24.5984 29.8409 24.849V28.9965C29.8409 29.2472 30.0845 29.4523 30.3863 29.4523H35.3713C35.6731 29.4523 35.9204 29.2472 35.9204 28.9965V24.696C35.9204 24.4453 35.6731 24.2403 35.3713 24.2403L35.3677 24.3933ZM35.3677 31.6139H30.3863C30.0845 31.6139 29.8409 31.819 29.8409 32.0697V36.2171C29.8409 36.4678 30.0845 36.6729 30.3863 36.6729H35.3713C35.6731 36.6729 35.9204 36.4678 35.9204 36.2171V31.9167C35.9204 31.666 35.6731 31.4609 35.3713 31.4609L35.3677 31.6139ZM21.7398 31.6139H26.7248C27.0266 31.6139 27.2739 31.819 27.2739 32.0697V36.2171C27.2739 36.4678 27.0266 36.6729 26.7248 36.6729H21.7398C21.4381 36.6729 21.1908 36.4678 21.1908 36.2171V32.0697C21.1944 31.819 21.4381 31.6139 21.7398 31.6139ZM2.54886 15.5319H37.7893C37.9784 15.5319 38.1311 15.6751 38.1311 15.8379V37.9002C38.1311 38.063 37.9711 38.2062 37.7893 38.2062H2.21071C2.02891 38.2062 1.86892 38.0695 1.86892 37.9002V16.1406C1.86892 15.8053 2.17435 15.5319 2.54886 15.5319ZM28.6519 9.57109C29.7028 9.57109 30.5645 8.96232 30.5645 8.22658V4.91902L30.5536 4.78555H26.7539L26.743 4.91902V8.22658C26.743 8.96557 27.6011 9.57109 28.6519 9.57109ZM10.8208 9.57109C11.8716 9.57109 12.7334 8.96232 12.7334 8.22658V4.91902L12.7225 4.78555H8.91919L8.90828 4.91902V8.22658C8.90828 8.96557 9.76638 9.57109 10.8208 9.57109Z" fill="black"/>
</svg>
