<svg width="40" height="40" viewBox="0 0 40 40" fill="none" xmlns="http://www.w3.org/2000/svg">
<path fill-rule="evenodd" clip-rule="evenodd" d="M34.3452 34.5912H32.3724V37.7419C32.3733 38.0376 32.3168 38.3305 32.2062 38.604C32.0955 38.8775 31.933 39.1262 31.7277 39.3359C31.5224 39.5456 31.2785 39.7121 31.0099 39.8261C30.7412 39.94 30.4531 39.9991 30.162 40H28.8598C28.2743 39.9974 27.7136 39.76 27.2996 39.3396C26.8856 38.9192 26.6519 38.3497 26.6493 37.7552V34.6045H13.2888V37.7552C13.2863 38.3514 13.0512 38.9224 12.6351 39.3431C12.219 39.7638 11.6558 40 11.0686 40H9.76642C9.18126 39.9974 8.62085 39.7599 8.20738 39.3394C7.79391 38.9189 7.56092 38.3494 7.55921 37.7552V34.6045H5.89241C4.73997 34.5846 4.18654 33.9432 4.1019 32.8555V7.11103C3.4508 7.17716 3.14153 7.32924 2.98527 7.66646V15.0225H1.58542C1.1652 15.0216 0.762444 14.8517 0.465308 14.55C0.168171 14.2482 0.000860216 13.8392 0 13.4124L0 9.06824C0.0014653 8.64962 0.162765 8.24791 0.44996 7.94761C0.737154 7.64732 1.12785 7.47187 1.53984 7.45817C1.67331 6.19525 2.21047 5.82827 4.14422 5.7357C4.41985 3.53164 5.89892 1.90174 8.58143 0.845997C14.3534 -0.228482 25.3048 -0.334277 31.4218 0.845997C34.1174 1.90064 35.5888 3.53054 35.8558 5.7357C37.8091 5.83488 38.3332 6.20517 38.4602 7.45817C38.8721 7.47187 39.2628 7.64732 39.55 7.94761C39.8372 8.24791 39.9985 8.64962 40 9.06824V13.4124C39.9991 13.8392 39.8318 14.2482 39.5347 14.55C39.2376 14.8517 38.8348 15.0216 38.4146 15.0225H37.0147V7.64662C36.8585 7.31601 36.5362 7.17054 35.8981 7.10773V32.5911C35.8981 34.0656 35.4293 34.5747 34.342 34.5747L34.3452 34.5912ZM5.25108 28.0551L5.34223 25.8433C5.39432 25.4565 5.59616 25.2846 5.95752 25.3474C7.78215 26.3366 9.53287 27.4604 11.1956 28.7097C11.5504 28.9477 11.4104 29.4073 10.9416 29.3213L6.01611 28.9577C5.80273 28.9265 5.60767 28.8179 5.46703 28.652C5.32638 28.4861 5.24967 28.274 5.25108 28.0551ZM16.9285 30.8917H23.2115C23.2927 30.8917 23.3705 30.9245 23.4279 30.9827C23.4853 31.041 23.5175 31.1201 23.5175 31.2025V32.2737C23.5175 32.3561 23.4853 32.4351 23.4279 32.4934C23.3705 32.5517 23.2927 32.5844 23.2115 32.5844H16.9285C16.8473 32.5844 16.7695 32.5517 16.7121 32.4934C16.6547 32.4351 16.6224 32.3561 16.6224 32.2737V31.2025C16.6224 31.1201 16.6547 31.041 16.7121 30.9827C16.7695 30.9245 16.8473 30.8917 16.9285 30.8917ZM33.3198 30.8917C33.4805 30.893 33.6373 30.9425 33.7706 31.0339C33.9038 31.1253 34.0075 31.2546 34.0687 31.4056C34.1299 31.5565 34.1459 31.7225 34.1147 31.8827C34.0835 32.0428 34.0065 32.1901 33.8932 32.306C33.78 32.4219 33.6356 32.5013 33.4781 32.5343C33.3207 32.5672 33.1571 32.5523 33.008 32.4913C32.8588 32.4303 32.7307 32.326 32.6397 32.1915C32.5486 32.0569 32.4987 31.898 32.4961 31.7348C32.4961 31.5153 32.5818 31.3047 32.7343 31.1492C32.8868 30.9936 33.0938 30.9058 33.31 30.9049L33.3198 30.8917ZM6.41328 30.8917C6.5739 30.8937 6.73039 30.9437 6.86319 31.0355C6.99598 31.1273 7.09919 31.2568 7.15991 31.4078C7.22063 31.5588 7.23617 31.7247 7.20459 31.8846C7.173 32.0446 7.0957 32.1915 6.98234 32.3071C6.86898 32.4227 6.72458 32.5018 6.56721 32.5345C6.40984 32.5672 6.24646 32.552 6.09751 32.491C5.94855 32.4299 5.82063 32.3256 5.72972 32.1911C5.63882 32.0566 5.58896 31.8979 5.58639 31.7348C5.58639 31.5147 5.67248 31.3036 5.82572 31.148C5.97896 30.9924 6.1868 30.9049 6.40352 30.9049L6.41328 30.8917ZM34.7619 28.0386L34.6708 25.8268C34.6187 25.44 34.4169 25.2681 34.0588 25.3309C32.2326 26.3193 30.4808 27.4431 28.8174 28.6932C28.4626 28.9312 28.6026 29.3908 29.0714 29.3048L33.9969 28.9411C34.2106 28.9106 34.406 28.8023 34.5468 28.6362C34.6876 28.4701 34.764 28.2577 34.7619 28.0386ZM15.6881 2.01635H24.3151C24.4547 2.01722 24.5884 2.07393 24.6871 2.17418C24.7858 2.27443 24.8417 2.41016 24.8425 2.55194V3.96364C24.8417 4.10542 24.7858 4.24114 24.6871 4.3414C24.5884 4.44165 24.4547 4.49836 24.3151 4.49922H15.6881C15.5485 4.49836 15.4149 4.44165 15.3161 4.3414C15.2174 4.24114 15.1616 4.10542 15.1607 3.96364V2.55194C15.1616 2.41016 15.2174 2.27443 15.3161 2.17418C15.4149 2.07393 15.5485 2.01722 15.6881 2.01635ZM6.61512 6.24815H33.2709C33.4436 6.24815 33.6092 6.31781 33.7313 6.44181C33.8534 6.56581 33.922 6.734 33.922 6.90936V21.1851C33.922 21.5421 33.6323 21.7438 33.2709 21.8463C24.1263 24.6664 15.7565 24.5506 6.61512 21.8463C6.25376 21.7471 5.96403 21.5487 5.96403 21.1851V6.90275C5.96403 6.72739 6.03262 6.5592 6.15473 6.4352C6.27683 6.3112 6.44244 6.24153 6.61512 6.24153V6.24815Z" fill="black"/>
</svg>
